<svg xmlns="http://www.w3.org/2000/svg" fill="none" viewBox="0 0 48 48" id="Cloud--Streamline-Sharp-Material">
  <desc>
    Cloud Streamline Icon: https://streamlinehq.com
  </desc>
  <path fill="#000000" d="M12.55 40c-2.93333 0 -5.425 -1.025 -7.475 -3.075C3.025 34.875 2 32.3833 2 29.45c0 -2.6 0.83333 -4.8833 2.5 -6.85 1.66667 -1.9667 3.78333 -3.15 6.35 -3.55 0.6667 -3.2333 2.2333 -5.875 4.7 -7.925 2.4667 -2.05001 5.3167 -3.07501 8.55 -3.07501 3.7333 0 6.8833 1.35833 9.45 4.07501 2.5667 2.7167 3.85 5.975 3.85 9.775v1.2c2.4 -0.0667 4.4333 0.7083 6.1 2.325 1.6667 1.6167 2.5 3.6583 2.5 6.125 0 2.3 -0.8333 4.2833 -2.5 5.95 -1.6667 1.6667 -3.65 2.5 -5.95 2.5h-25Zm0 -3h25c1.5 0 2.7833 -0.5333 3.85 -1.6s1.6 -2.35 1.6 -3.85 -0.5333 -2.7833 -1.6 -3.85 -2.35 -1.6 -3.85 -1.6H34.4v-4.2c0 -3.0333 -1.0167 -5.6 -3.05 -7.7 -2.0333 -2.1 -4.5167 -3.15 -7.45 -3.15s-5.425 1.05 -7.475 3.15c-2.05 2.1 -3.075 4.6667 -3.075 7.7h-0.95c-2.0667 0 -3.81667 0.725 -5.25 2.175C5.71667 25.525 5 27.3167 5 29.45c0 2.1 0.73333 3.8833 2.2 5.35 1.46667 1.4667 3.25 2.2 5.35 2.2Z" stroke-width="1"></path>
</svg>